<svg width="26" height="27" viewBox="0 0 26 27" fill="none" xmlns="http://www.w3.org/2000/svg">
<path fill-rule="evenodd" clip-rule="evenodd" d="M19.5993 7.11406C19.7871 7.30181 19.8926 7.55646 19.8926 7.82198C19.8926 8.08751 19.7871 8.34215 19.5993 8.52991L13.936 14.1933C13.7482 14.3811 13.4936 14.4865 13.228 14.4865C12.9625 14.4865 12.7079 14.3811 12.5201 14.1933L6.85671 8.52991C6.66895 8.34215 6.56347 8.08751 6.56347 7.82198C6.56347 7.55646 6.66895 7.30181 6.85671 7.11406C7.04446 6.92631 7.29911 6.82083 7.56463 6.82083C7.83015 6.82083 8.0848 6.92631 8.27255 7.11406L13.228 12.0695L18.1835 7.11406C18.3713 6.92631 18.6259 6.82083 18.8914 6.82083C19.1569 6.82083 19.4116 6.92631 19.5993 7.11406V7.11406Z" fill="white"/>
<path fill-rule="evenodd" clip-rule="evenodd" d="M12.5197 12.7772C12.7075 12.5894 12.9621 12.484 13.2277 12.484C13.4932 12.484 13.7478 12.5894 13.9356 12.7772L19.599 18.4406C19.7867 18.6284 19.8922 18.883 19.8922 19.1485C19.8922 19.414 19.7867 19.6687 19.599 19.8564C19.4112 20.0442 19.1566 20.1497 18.8911 20.1497C18.6255 20.1497 18.3709 20.0442 18.1831 19.8564L13.2277 14.901L8.27219 19.8564C8.08444 20.0442 7.82979 20.1497 7.56426 20.1497C7.29874 20.1497 7.04409 20.0442 6.85634 19.8564C6.66859 19.6687 6.56311 19.414 6.56311 19.1485C6.56311 18.883 6.66859 18.6284 6.85634 18.4406L12.5197 12.7772Z" fill="white"/>
</svg>
