<svg width="61" height="62" viewBox="0 0 61 62" fill="none" xmlns="http://www.w3.org/2000/svg">
<path d="M48.3462 0.1595L60.6665 13.0024V61.8406H14.6426V62.0001H60.8237V13.164L48.3462 0.1595Z" fill="#909090"/>
<path d="M48.1964 0H14.4883V61.8406H60.6694V13.0045L48.1941 0" fill="#F4F4F4"/>
<path d="M14.1493 3.32143H0V18.4384H44.5071V3.32143H14.1493Z" fill="#7A7B7C"/>
<path d="M44.7414 18.1816H0.285156V3.05359H44.7414V18.1816Z" fill="#DD2025"/>
<path d="M15.0249 5.61113H12.1309V16.2397H14.4071V12.6548L14.9098 12.6836C15.3982 12.6752 15.882 12.5877 16.3424 12.4245C16.7461 12.2856 17.1175 12.0665 17.4341 11.7801C17.7562 11.5074 18.0103 11.1631 18.1759 10.7748C18.3979 10.1294 18.4773 9.44339 18.4084 8.76427C18.3945 8.27914 18.3095 7.79867 18.1559 7.33827C18.0162 7.00592 17.8087 6.70632 17.5468 6.45852C17.2849 6.21073 16.9743 6.02017 16.6347 5.89899C16.3411 5.7927 16.0378 5.71556 15.7291 5.6687C15.4953 5.63263 15.2592 5.61339 15.0227 5.61113H15.0249ZM14.6042 10.6907H14.4071V7.41356H14.8345C15.0231 7.39996 15.2124 7.42891 15.3883 7.49828C15.5642 7.56765 15.7223 7.67567 15.8509 7.81434C16.1173 8.17088 16.2596 8.60485 16.2561 9.04992C16.2561 9.59463 16.2561 10.0884 15.7645 10.4361C15.4104 10.6308 15.0073 10.7185 14.6042 10.6885" fill="#464648"/>
<path d="M22.7374 5.58206C22.4916 5.58206 22.2525 5.59977 22.0842 5.60642L21.5572 5.6197H19.8301V16.2483H21.8628C22.6396 16.2696 23.4131 16.1379 24.1391 15.8608C24.7235 15.629 25.2409 15.2553 25.6448 14.7736C26.0375 14.2874 26.3194 13.7214 26.4707 13.1151C26.6447 12.4283 26.7295 11.7221 26.7231 11.0137C26.7661 10.177 26.7014 9.33835 26.5305 8.5182C26.3684 7.9145 26.0648 7.35812 25.6448 6.89513C25.3153 6.52128 24.9119 6.21971 24.4601 6.00942C24.0722 5.82987 23.664 5.69755 23.2445 5.61527C23.0777 5.58771 22.9087 5.57512 22.7396 5.57763L22.7374 5.58206ZM22.3366 14.2953H22.1152V7.5107H22.144C22.6005 7.45818 23.0624 7.54055 23.4726 7.74763C23.773 7.9875 24.0177 8.28969 24.19 8.63334C24.3759 8.99501 24.4831 9.39197 24.5044 9.79806C24.5244 10.2852 24.5044 10.6838 24.5044 11.0137C24.5135 11.3938 24.489 11.7739 24.4314 12.1496C24.3631 12.5354 24.237 12.9087 24.0571 13.2568C23.8536 13.5804 23.5787 13.8531 23.2534 14.0539C22.9802 14.2306 22.6567 14.313 22.3322 14.2886" fill="#464648"/>
<path d="M33.578 5.61978H28.1973V16.2484H30.4736V12.0324H33.3521V10.0572H30.4736V7.59492H33.5735V5.61978" fill="#464648"/>
<path d="M43.2122 40.4218C43.2122 40.4218 50.2714 39.1419 50.2714 41.5533C50.2714 43.9646 45.8981 42.9837 43.2122 40.4218ZM37.9931 40.6055C36.8716 40.8534 35.7786 41.2162 34.7315 41.6883L35.6172 39.6955C36.5029 37.7026 37.4219 34.9857 37.4219 34.9857C38.4788 36.7645 39.7085 38.4348 41.0931 39.9723C40.0489 40.128 39.014 40.3409 37.9931 40.61V40.6055ZM35.1987 26.2127C35.1987 24.1113 35.8785 23.5378 36.4077 23.5378C36.9369 23.5378 37.5326 23.7925 37.5525 25.6171C37.3801 27.4517 36.9959 29.2603 36.4077 31.0066C35.602 29.5404 35.185 27.8923 35.1965 26.2193L35.1987 26.2127ZM24.9045 49.4981C22.7389 48.2028 29.446 44.2148 30.6616 44.0864C30.655 44.0886 27.1719 50.8533 24.9045 49.4981ZM52.3329 41.8389C52.3107 41.6175 52.1114 39.1663 47.7493 39.2703C45.9311 39.241 44.1137 39.3692 42.3176 39.6534C40.5778 37.9006 39.0795 35.9235 37.8625 33.7745C38.6292 31.5589 39.0933 29.25 39.242 26.9102C39.1778 24.253 38.5423 22.7296 36.5051 22.7518C34.468 22.7739 34.1713 24.5564 34.4392 27.2091C34.7017 28.9917 35.1967 30.7322 35.9117 32.3861C35.9117 32.3861 34.9706 35.3156 33.7262 38.2296C32.4818 41.1436 31.6315 42.6715 31.6315 42.6715C29.4675 43.3759 27.4304 44.4225 25.5976 45.7715C23.773 47.4698 23.0312 48.774 23.9922 50.0783C24.8204 51.2031 27.7189 51.4578 30.3096 48.0633C31.6861 46.31 32.9437 44.4666 34.0739 42.5453C34.0739 42.5453 38.0241 41.4625 39.2531 41.1658C40.482 40.869 41.9678 40.6343 41.9678 40.6343C41.9678 40.6343 45.5749 44.2635 49.0535 44.1351C52.5321 44.0067 52.3639 42.0559 52.3417 41.8433" fill="#DD2025"/>
<path d="M48.0234 0.170563V13.1751H60.4965L48.0234 0.170563Z" fill="#909090"/>
<path d="M48.1953 0V13.0045H60.6684L48.1953 0Z" fill="#F4F4F4"/>
<path d="M14.857 5.44057H11.9629V16.0691H14.248V12.4864L14.7529 12.5152C15.2413 12.5068 15.7251 12.4193 16.1855 12.2561C16.5892 12.1172 16.9605 11.8981 17.2772 11.6118C17.5969 11.3383 17.8486 10.9941 18.0123 10.6065C18.2344 9.96103 18.3137 9.27504 18.2448 8.59592C18.231 8.11079 18.1459 7.63032 17.9924 7.16992C17.8526 6.83758 17.6452 6.53797 17.3833 6.29017C17.1214 6.04238 16.8107 5.85182 16.4712 5.73064C16.1762 5.62331 15.8714 5.54544 15.5611 5.49814C15.3273 5.46207 15.0913 5.44283 14.8547 5.44057H14.857ZM14.4362 10.5201H14.2392V7.243H14.6687C14.8574 7.22939 15.0466 7.25835 15.2225 7.32772C15.3985 7.39709 15.5565 7.50511 15.6851 7.64378C15.9515 8.00031 16.0938 8.43429 16.0903 8.87935C16.0903 9.42407 16.0903 9.91785 15.5987 10.2655C15.2446 10.4603 14.8415 10.548 14.4385 10.5179" fill="white"/>
<path d="M22.5648 5.41175C22.319 5.41175 22.0798 5.42947 21.9116 5.43611L21.3912 5.4494H19.6641V16.078H21.6968C22.4736 16.0993 23.247 15.9676 23.9731 15.6905C24.5574 15.4587 25.0749 15.085 25.4788 14.6033C25.8715 14.1171 26.1534 13.5511 26.3047 12.9448C26.4787 12.258 26.5635 11.5518 26.5571 10.8434C26.6001 10.0067 26.5353 9.16804 26.3645 8.3479C26.2024 7.7442 25.8987 7.18782 25.4788 6.72483C25.1493 6.35097 24.7459 6.0494 24.2941 5.83911C23.9061 5.65957 23.498 5.52724 23.0785 5.44497C22.9117 5.41741 22.7427 5.40481 22.5736 5.40733L22.5648 5.41175ZM22.1706 14.125H21.9492V7.3404H21.978C22.4345 7.28787 22.8964 7.37024 23.3066 7.57733C23.607 7.81719 23.8517 8.11938 24.024 8.46304C24.2099 8.82471 24.3171 9.22167 24.3384 9.62775C24.3583 10.1149 24.3384 10.5135 24.3384 10.8434C24.3474 11.2235 24.323 11.6036 24.2653 11.9793C24.1971 12.3651 24.0709 12.7384 23.8911 13.0865C23.6876 13.4101 23.4127 13.6828 23.0873 13.8836C22.8142 14.0603 22.4906 14.1427 22.1662 14.1183" fill="white"/>
<path d="M33.41 5.44948H28.0293V16.078H30.3056V11.862H33.1842V9.88691H30.3056V7.42462H33.4056V5.44948" fill="white"/>
</svg>
