<svg width="12" height="12" viewBox="0 0 12 12" fill="none" xmlns="http://www.w3.org/2000/svg">
<path fill-rule="evenodd" clip-rule="evenodd" d="M6 0C6.17681 0 6.34638 0.070238 6.4714 0.195262C6.59643 0.320287 6.66667 0.489856 6.66667 0.666667V6C6.66667 6.17681 6.59643 6.34638 6.4714 6.4714C6.34638 6.59643 6.17681 6.66667 6 6.66667H0.666667C0.489856 6.66667 0.320287 6.59643 0.195262 6.4714C0.070238 6.34638 0 6.17681 0 6C0 5.82319 0.070238 5.65362 0.195262 5.5286C0.320287 5.40357 0.489856 5.33333 0.666667 5.33333H5.33333V0.666667C5.33333 0.489856 5.40357 0.320287 5.5286 0.195262C5.65362 0.070238 5.82319 0 6 0Z" fill="#BC2925"/>
<path fill-rule="evenodd" clip-rule="evenodd" d="M5.33398 6.00004C5.33398 5.82323 5.40422 5.65366 5.52925 5.52864C5.65427 5.40361 5.82384 5.33337 6.00065 5.33337H11.334C11.5108 5.33337 11.6804 5.40361 11.8054 5.52864C11.9304 5.65366 12.0007 5.82323 12.0007 6.00004C12.0007 6.17685 11.9304 6.34642 11.8054 6.47145C11.6804 6.59647 11.5108 6.66671 11.334 6.66671H6.66732V11.3334C6.66732 11.5102 6.59708 11.6798 6.47206 11.8048C6.34703 11.9298 6.17746 12 6.00065 12C5.82384 12 5.65427 11.9298 5.52925 11.8048C5.40422 11.6798 5.33398 11.5102 5.33398 11.3334V6.00004Z" fill="#BC2925"/>
</svg>
