<svg width="11" height="11" viewBox="0 0 11 11" fill="none" xmlns="http://www.w3.org/2000/svg">
<path fill-rule="evenodd" clip-rule="evenodd" d="M9.57781 4.87046C9.70258 4.99574 9.77248 5.16545 9.77212 5.34226C9.77177 5.51907 9.70118 5.6885 9.57591 5.81327L5.79706 9.57688C5.67179 9.70165 5.50208 9.77155 5.32526 9.77119C5.14845 9.77084 4.97903 9.70025 4.85426 9.57498L1.09064 5.79613C0.965873 5.67086 0.895977 5.50115 0.896335 5.32433C0.896692 5.14752 0.967272 4.9781 1.09255 4.85333C1.21783 4.72855 1.38754 4.65866 1.56435 4.65902C1.74116 4.65937 1.91058 4.72995 2.03536 4.85523L5.32852 8.16172L8.63501 4.86856C8.76028 4.74379 8.92999 4.67389 9.1068 4.67425C9.28361 4.67461 9.45304 4.74519 9.57781 4.87046Z" fill="#BC2925"/>
</svg>
