<svg width="24" height="28" viewBox="0 0 24 28" fill="none" xmlns="http://www.w3.org/2000/svg">
<path d="M12 0C15.1826 0 18.2348 1.26429 20.4853 3.51475C22.7357 5.7652 24 8.81747 24 12.0001C24 17.7341 20.13 23.0122 12.536 27.8442C12.3757 27.946 12.1898 28 12 28C11.8102 28 11.6243 27.946 11.464 27.8442C3.87 23.0122 0 17.7341 0 12.0001C0 8.81747 1.26428 5.7652 3.51472 3.51475C5.76515 1.26429 8.8174 0 12 0ZM12 8.00006C10.9391 8.00006 9.92172 8.42149 9.17157 9.17164C8.42143 9.92179 8 10.9392 8 12.0001C8 13.061 8.42143 14.0784 9.17157 14.8285C9.92172 15.5787 10.9391 16.0001 12 16.0001C13.0609 16.0001 14.0783 15.5787 14.8284 14.8285C15.5786 14.0784 16 13.061 16 12.0001C16 10.9392 15.5786 9.92179 14.8284 9.17164C14.0783 8.42149 13.0609 8.00006 12 8.00006Z" fill="#BC2925"/>
</svg>
