<svg width="25" height="25" viewBox="0 0 25 25" fill="none" xmlns="http://www.w3.org/2000/svg">
<path d="M-5.46392e-07 12.5C-4.38326e-07 14.9723 0.733112 17.389 2.10663 19.4446C3.48015 21.5002 5.43238 23.1024 7.71645 24.0485C10.0005 24.9946 12.5139 25.2421 14.9386 24.7598C17.3634 24.2775 19.5907 23.087 21.3388 21.3388C23.087 19.5907 24.2775 17.3634 24.7598 14.9386C25.2421 12.5139 24.9946 10.0005 24.0485 7.71645C23.1024 5.43238 21.5002 3.48015 19.4446 2.10663C17.389 0.733109 14.9723 -9.11535e-07 12.5 -7.6102e-07C9.18479 -5.59185e-07 6.00537 1.31696 3.66116 3.66116C1.31696 6.00537 -6.91305e-07 9.18479 -5.46392e-07 12.5ZM12.1641 6.25C12.3683 6.45876 12.4826 6.7392 12.4826 7.03125C12.4826 7.32329 12.3683 7.60373 12.1641 7.8125L8.59375 11.4062L19.6406 11.4062C19.9307 11.4062 20.2089 11.5215 20.414 11.7266C20.6191 11.9317 20.7344 12.2099 20.7344 12.5C20.7344 12.7901 20.6191 13.0683 20.414 13.2734C20.2089 13.4785 19.9307 13.5937 19.6406 13.5937L8.70312 13.5937L12.1641 17.0547C12.3713 17.2619 12.4877 17.5429 12.4877 17.8359C12.4877 18.129 12.3713 18.41 12.1641 18.6172C11.9569 18.8244 11.6758 18.9408 11.3828 18.9408C11.0898 18.9408 10.8088 18.8244 10.6016 18.6172L4.45312 12.4375L10.6172 6.25C10.7187 6.14842 10.8393 6.06785 10.972 6.01287C11.1047 5.9579 11.247 5.92961 11.3906 5.92961C11.5343 5.92961 11.6765 5.9579 11.8092 6.01287C11.9419 6.06785 12.0625 6.14842 12.1641 6.25Z" fill="#D8D8D8"/>
</svg>
