<svg width="25" height="25" viewBox="0 0 25 25" fill="none" xmlns="http://www.w3.org/2000/svg">
<path d="M25 12.5C25 10.0277 24.2669 7.61099 22.8934 5.55538C21.5199 3.49976 19.5676 1.89761 17.2835 0.951511C14.9995 0.00541565 12.4861 -0.242126 10.0614 0.240189C7.63661 0.722504 5.40933 1.91301 3.66117 3.66117C1.91302 5.40933 0.722505 7.63661 0.24019 10.0614C-0.242125 12.4861 0.00541607 14.9995 0.95151 17.2835C1.89761 19.5676 3.49976 21.5199 5.55538 22.8934C7.61099 24.2669 10.0277 25 12.5 25C15.8152 25 18.9946 23.683 21.3388 21.3388C23.683 18.9946 25 15.8152 25 12.5ZM12.8359 18.75C12.6317 18.5412 12.5173 18.2608 12.5173 17.9688C12.5173 17.6767 12.6317 17.3963 12.8359 17.1875L16.4063 13.5938L5.35938 13.5938C5.0693 13.5938 4.7911 13.4785 4.58598 13.2734C4.38086 13.0683 4.26563 12.7901 4.26563 12.5C4.26563 12.2099 4.38086 11.9317 4.58598 11.7266C4.7911 11.5215 5.0693 11.4063 5.35938 11.4063L16.2969 11.4063L12.8359 7.94532C12.6287 7.73812 12.5123 7.45709 12.5123 7.16407C12.5123 6.87104 12.6287 6.59002 12.8359 6.38282C13.0431 6.17562 13.3242 6.05921 13.6172 6.05921C13.9102 6.05921 14.1912 6.17562 14.3984 6.38282L20.5469 12.5625L14.3828 18.75C14.2812 18.8516 14.1607 18.9322 14.028 18.9871C13.8953 19.0421 13.753 19.0704 13.6094 19.0704C13.4657 19.0704 13.3235 19.0421 13.1908 18.9871C13.0581 18.9322 12.9375 18.8516 12.8359 18.75Z" fill="white"/>
</svg>
